<svg width="22" height="28" viewBox="0 0 22 28" fill="none" xmlns="http://www.w3.org/2000/svg">
<path opacity="0.5" d="M5.9178 16.5068L5.5 16.5764V17V20.5C5.5 20.7761 5.27614 21 5 21C4.72386 21 4.5 20.7761 4.5 20.5V8.3198C4.5 8.08146 4.66823 7.87626 4.90194 7.82951L6.89602 7.4307C8.2798 7.15394 9.70612 7.16911 11.0837 7.47524C12.6752 7.8289 14.3248 7.8289 15.9163 7.47524L17.1227 7.20714C17.3163 7.16412 17.5 7.31144 17.5 7.50976V15.7952C17.5 15.9727 17.3767 16.1263 17.2035 16.1648L15.7924 16.4784C14.2825 16.8139 12.7175 16.8139 11.2076 16.4784C9.75851 16.1564 8.26095 16.1163 6.79668 16.3603L5.9178 16.5068Z" stroke="#1E1F2C"/>
</svg>
