<svg width="25" height="24" viewBox="0 0 25 24" fill="none" xmlns="http://www.w3.org/2000/svg">
<path fill-rule="evenodd" clip-rule="evenodd" d="M8.94946 5H16.9495C18.6063 5 19.9495 6.34315 19.9495 8V16C19.9495 17.6569 18.6063 19 16.9495 19H8.94946C7.29261 19 5.94946 17.6569 5.94946 16V8C5.94946 6.34315 7.29261 5 8.94946 5ZM11.9433 7.93557C11.6316 7.66281 11.1578 7.69439 10.885 8.00612C10.6123 8.31785 10.6439 8.79167 10.9556 9.06443L14.3105 12L10.9556 14.9356C10.6439 15.2083 10.6123 15.6822 10.885 15.9939C11.1578 16.3056 11.6316 16.3372 11.9433 16.0644L15.9433 12.5644C16.1061 12.422 16.1995 12.2163 16.1995 12C16.1995 11.7837 16.1061 11.578 15.9433 11.4356L11.9433 7.93557Z" fill="#319AE2"/>
</svg>
