<svg width="25" height="24" viewBox="0 0 25 24" fill="none" xmlns="http://www.w3.org/2000/svg">
<path fill-rule="evenodd" clip-rule="evenodd" d="M8.94946 5H16.9495C18.6063 5 19.9495 6.34315 19.9495 8V16C19.9495 17.6569 18.6063 19 16.9495 19H8.94946C7.29261 19 5.94946 17.6569 5.94946 16V8C5.94946 6.34315 7.29261 5 8.94946 5ZM12.2676 10.4717C12.2676 9.22904 13.275 8.22168 14.5176 8.22168C15.7603 8.22168 16.7676 9.22904 16.7676 10.4717C16.7676 11.7143 15.7603 12.7217 14.5176 12.7217C13.275 12.7217 12.2676 11.7143 12.2676 10.4717ZM14.5176 6.72168C12.4466 6.72168 10.7676 8.40061 10.7676 10.4717C10.7676 12.5427 12.4466 14.2217 14.5176 14.2217C16.5887 14.2217 18.2676 12.5427 18.2676 10.4717C18.2676 8.40061 16.5887 6.72168 14.5176 6.72168ZM11.0173 17.5588C11.9467 16.7267 13.1723 16.2217 14.5177 16.2217C15.6353 16.2217 16.6694 16.5701 17.52 17.1642C17.8596 17.4014 18.3271 17.3184 18.5643 16.9789C18.8015 16.6393 18.7185 16.1717 18.3789 15.9345C17.2846 15.1701 15.9524 14.7217 14.5177 14.7217C12.789 14.7217 11.2106 15.3725 10.0168 16.4412C9.70821 16.7175 9.682 17.1917 9.95829 17.5003C10.2346 17.8089 10.7087 17.8351 11.0173 17.5588Z" fill="#30A259"/>
</svg>
