<svg width="24" height="24" viewBox="0 0 24 24" fill="none" xmlns="http://www.w3.org/2000/svg">
<g opacity="0.5">
<path d="M8 5.5H16C17.3807 5.5 18.5 6.61929 18.5 8V16C18.5 17.3807 17.3807 18.5 16 18.5H8C6.61929 18.5 5.5 17.3807 5.5 16V8C5.5 6.61929 6.61929 5.5 8 5.5Z" stroke="#1E1F2C" stroke-linecap="round" stroke-linejoin="round"/>
<path d="M8.37097 18.4718C9.4084 16.6784 11.3474 15.4718 13.5683 15.4718C15.2966 15.4718 16.8543 16.2026 17.9491 17.372M16.5682 10.4718C16.5682 12.1287 15.2251 13.4718 13.5682 13.4718C11.9114 13.4718 10.5682 12.1287 10.5682 10.4718C10.5682 8.81495 11.9114 7.4718 13.5682 7.4718C15.2251 7.4718 16.5682 8.81495 16.5682 10.4718Z" stroke="#1E1F2C" stroke-linecap="round" stroke-linejoin="round"/>
</g>
</svg>
