<svg width="25" height="24" viewBox="0 0 25 24" fill="none" xmlns="http://www.w3.org/2000/svg">
<path fill-rule="evenodd" clip-rule="evenodd" d="M8.94946 5H16.9495C18.6063 5 19.9495 6.34315 19.9495 8V16C19.9495 17.6569 18.6063 19 16.9495 19H8.94946C7.29261 19 5.94946 17.6569 5.94946 16V8C5.94946 6.34315 7.29261 5 8.94946 5ZM12.3494 15.16V8.84001C12.3494 8.24 12.0945 8 11.457 8H9.84196C9.20446 8 8.94946 8.24 8.94946 8.84001V15.16C8.94946 15.76 9.20445 16 9.84196 16H11.457C12.0944 16 12.3494 15.76 12.3494 15.16ZM14.442 8H16.057C16.6945 8 16.9495 8.24 16.9495 8.84001V12.36C16.9495 12.96 16.6945 13.2 16.057 13.2H14.442C13.8045 13.2 13.5495 12.96 13.5495 12.36V8.84001C13.5495 8.24 13.8045 8 14.442 8Z" fill="#30A259"/>
</svg>
