<svg width="24" height="24" viewBox="0 0 24 24" fill="none" xmlns="http://www.w3.org/2000/svg">
<g opacity="0.5">
<path d="M8 5.5H16C17.3807 5.5 18.5 6.61929 18.5 8V16C18.5 17.3807 17.3807 18.5 16 18.5H8C6.61929 18.5 5.5 17.3807 5.5 16V8C5.5 6.61929 6.61929 5.5 8 5.5Z" stroke="#1E1F2C" stroke-linecap="round" stroke-linejoin="round"/>
<path d="M10.9 8.84001V15.16C10.9 15.2775 10.8871 15.3505 10.8735 15.3933C10.8618 15.4304 10.8514 15.4398 10.8502 15.4408L10.8501 15.4409C10.8465 15.4443 10.783 15.5 10.5075 15.5H8.8925C8.61698 15.5 8.55349 15.4443 8.54987 15.4409L8.54978 15.4408C8.5486 15.4398 8.5382 15.4304 8.52645 15.3933C8.51286 15.3505 8.5 15.2775 8.5 15.16V8.84001C8.5 8.72248 8.51286 8.64954 8.52645 8.60667C8.5382 8.56957 8.5486 8.56025 8.54979 8.55918C8.54983 8.55914 8.54985 8.55912 8.54987 8.5591C8.5535 8.55568 8.61699 8.5 8.8925 8.5H10.5075C10.783 8.5 10.8465 8.55569 10.8501 8.5591C10.8501 8.55912 10.8502 8.55914 10.8502 8.55917C10.8514 8.56024 10.8618 8.56957 10.8735 8.60667C10.8871 8.64954 10.9 8.72248 10.9 8.84001ZM13.4925 8.5H15.1075C15.383 8.5 15.4465 8.55568 15.4501 8.5591L15.4502 8.55918C15.4514 8.56024 15.4618 8.56957 15.4736 8.60667C15.4871 8.64954 15.5 8.72248 15.5 8.84001V12.36C15.5 12.4775 15.4871 12.5505 15.4736 12.5934C15.4618 12.6305 15.4514 12.6398 15.4502 12.6408L15.4501 12.6409C15.4465 12.6443 15.383 12.7 15.1075 12.7H13.4925C13.217 12.7 13.1535 12.6443 13.1499 12.6409L13.1498 12.6408C13.1486 12.6398 13.1382 12.6304 13.1265 12.5933C13.1129 12.5505 13.1 12.4775 13.1 12.36V8.84001C13.1 8.72248 13.1129 8.64954 13.1265 8.60667C13.1382 8.56957 13.1486 8.56024 13.1498 8.55917L13.1499 8.5591C13.1535 8.55569 13.217 8.5 13.4925 8.5Z" stroke="#1E1F2C"/>
</g>
</svg>
