<svg width="30" height="32" viewBox="0 0 30 32" fill="none" xmlns="http://www.w3.org/2000/svg">
<path fill-rule="evenodd" clip-rule="evenodd" d="M26 32H4C1.79086 32 0 30.2091 0 28V4C0 1.79086 1.79086 0 4 0H16.3431C17.404 0 18.4214 0.421428 19.1716 1.17157L28.8284 10.8284C29.5786 11.5786 30 12.596 30 13.6569V28C30 30.2091 28.2091 32 26 32ZM21 13C21 14.6569 19.6568 16 18 16C16.3431 16 15 14.6569 15 13C15 11.3431 16.3431 10 18 10C19.6568 10 21 11.3431 21 13ZM9.78844 16.729L5.86898 23.499C5.48302 24.1656 5.96407 25 6.73441 25H21.6783C22.4674 25 22.9456 24.1288 22.5219 23.4631L20.5325 20.3368C20.2377 19.8736 19.6245 19.7347 19.1588 20.0257L16.7341 21.5412C16.3127 21.8046 15.7618 21.7185 15.4407 21.3391L11.4173 16.5841C10.9704 16.0559 10.1351 16.1302 9.78844 16.729Z" fill="#319AE2"/>
</svg>
