<svg width="26" height="26" viewBox="0 0 26 26" fill="none" xmlns="http://www.w3.org/2000/svg">
<path fill-rule="evenodd" clip-rule="evenodd" d="M10.4996 10C10.4996 8.61929 11.6189 7.5 12.9996 7.5C14.3803 7.5 15.4996 8.61929 15.4996 10C15.4996 11.3807 14.3803 12.5 12.9996 12.5C11.6189 12.5 10.4996 11.3807 10.4996 10ZM12.9996 6.5C11.0666 6.5 9.49959 8.067 9.49959 10C9.49959 11.933 11.0666 13.5 12.9996 13.5C14.9326 13.5 16.4996 11.933 16.4996 10C16.4996 8.067 14.9326 6.5 12.9996 6.5ZM8.23513 19.2504C9.18686 17.6051 10.9645 16.5 12.9996 16.5C15.0348 16.5 16.8124 17.6051 17.7641 19.2504C17.9024 19.4894 18.2083 19.5711 18.4473 19.4328C18.6863 19.2945 18.768 18.9887 18.6297 18.7496C17.5066 16.8081 15.4062 15.5 12.9996 15.5C10.5931 15.5 8.49265 16.8081 7.36953 18.7496C7.23125 18.9887 7.31294 19.2945 7.55197 19.4328C7.791 19.5711 8.09686 19.4894 8.23513 19.2504Z" fill="#1E1F2C"/>
<rect x="1" y="1" width="24" height="24" rx="12" stroke="#1E1F2C" stroke-linecap="round" stroke-dasharray="3 3"/>
</svg>
